# xmcd
#
# Track frame offsets:
#	150
#	6793
#	21774
#	36606
#	45659
#	65499
#	80388
#	98220
#	113928
#	136613
#	150454
#	172938
#	192684
#	205653
#
# Disc length: 2892 seconds
#
# Revision: 0
# Processed by: cddbd v1.5.2PL0 Copyright (c) Steve Scherf et al.
# Submitted via: dBpowerAMP V4.0
#
DISCID=b30b4a0e
DTITLE=Petunia and the loons - Petunia and the loons
DYEAR=2007
DGENRE=Country folk
TTITLE0=My Bacon Princess
TTITLE1=Come on down to the show tonight
TTITLE2=Steel Tooth River
TTITLE3=Tick Tock
TTITLE4=Cowboy Waltz
TTITLE5=Sheila's song
TTITLE6=Big wide river of Love
TTITLE7=ZUZU
TTITLE8=Hillbilly Hut
TTITLE9=Cold Heart Breaker
TTITLE10=Once upon a Time
TTITLE11=They Almost Had me Believing
TTITLE12=Bright Light
TTITLE13=How Long Would It Take (christina's Lullaby
EXTD=
EXTT0=
EXTT1=
EXTT2=
EXTT3=
EXTT4=
EXTT5=
EXTT6=
EXTT7=
EXTT8=
EXTT9=
EXTT10=
EXTT11=
EXTT12=
EXTT13=
PLAYORDER=
